<?xml version="1.0" encoding="utf-8"?>
<!--
  ~ @author Antonio Gatta <a.gatta@xeader.com>
  ~ @url http://www.xeader.com
  ~ @copyright Copyright (c) 2017
  ~ @license All right reserved
  -->

<!-- Generator: Adobe Illustrator 16.0.0, SVG Export Plug-In . SVG Version: 6.00 Build 0)  -->
<!DOCTYPE svg PUBLIC "-//W3C//DTD SVG 1.0//EN" "http://www.w3.org/TR/2001/REC-SVG-20010904/DTD/svg10.dtd">
<svg version="1.0" id="Layer_1" xmlns="http://www.w3.org/2000/svg" xmlns:xlink="http://www.w3.org/1999/xlink" x="0px" y="0px"
	 width="282.355px" height="282.355px" viewBox="0 0 282.355 282.355" enable-background="new 0 0 282.355 282.355"
	 xml:space="preserve">
<path fill="#00ADEE" d="M253.23,219.31l-45.587,45.573l-45.731-45.716c-4.057-4.058-4.057-10.644,0-14.715l45.603-45.573
	l45.716,45.716C257.303,208.666,257.303,215.238,253.23,219.31z"/>
<path fill="#00ADEE" d="M253.23,63.081c4.072,4.064,4.072,10.651,0.029,14.723l-45.474,45.709l-45.588-45.595
	c-4.058-4.058-4.071-10.65-0.028-14.715l45.474-45.709L253.23,63.081z"/>
<path fill="#00ADEE" d="M119.225,70.589L48.636,0L3.048,45.595c-4.064,4.05-4.064,10.644,0,14.708l80.882,80.875l-80.882,80.89
	c-4.064,4.058-4.064,10.644,0,14.687l45.588,45.602l133.821-133.82c4.057-4.064,4.057-10.65,0-14.708L119.225,70.589z"/>
</svg>
